<?xml version="1.0" standalone="no"?><!DOCTYPE svg PUBLIC "-//W3C//DTD SVG 1.1//EN" "http://www.w3.org/Graphics/SVG/1.1/DTD/svg11.dtd"><svg t="1648710265181" class="icon" viewBox="0 0 1024 1024" version="1.1" xmlns="http://www.w3.org/2000/svg" p-id="8484" xmlns:xlink="http://www.w3.org/1999/xlink" width="24" height="24"><defs><style type="text/css">@font-face { font-family: feedback-iconfont; src: url("//at.alicdn.com/t/font_1031158_u69w8yhxdu.woff2?t=1630033759944") format("woff2"), url("//at.alicdn.com/t/font_1031158_u69w8yhxdu.woff?t=1630033759944") format("woff"), url("//at.alicdn.com/t/font_1031158_u69w8yhxdu.ttf?t=1630033759944") format("truetype"); }
</style></defs><path d="M511.371087 0C229.408252 0 0 229.408252 0 511.371087s229.408252 511.37915 511.371087 511.379149 511.37915-229.408252 511.379149-511.379149C1022.750236 229.408252 793.341984 0 511.371087 0z m0 971.655055c-253.806866 0-460.275906-206.469039-460.275906-460.283968 0-253.806866 206.469039-460.275906 460.275906-460.275906 253.814929 0 460.283969 206.469039 460.283968 460.275906 0 253.814929-206.469039 460.283969-460.283968 460.283968zM645.265134 386.862362L449.221543 581.865827l-71.526803-71.954142a25.616126 25.616126 0 0 0-36.08189-0.209638c-10.014236 9.804598-10.014236 26.075717-0.209637 36.08189l89.46696 90.095874a25.398425 25.398425 0 0 0 36.08189 0l214.185323-212.935559a25.616126 25.616126 0 0 0 0.209638-36.073827 25.430677 25.430677 0 0 0-36.08189 0z" fill="#20A0FF" p-id="8485"></path></svg>